<svg width="241" height="51" viewBox="0 0 241 51" fill="none" xmlns="http://www.w3.org/2000/svg">
<path d="M32.6653 2.56H1.94525C1.30525 2.56 1.11325 2.752 1.11325 3.392V4.544C1.11325 5.12 1.30525 5.312 1.94525 5.312H15.8333V47.168C15.8333 47.808 16.0253 48 16.6653 48H18.0093C18.5853 48 18.7773 47.808 18.7773 47.168V5.312H32.6653C33.3053 5.312 33.4973 5.12 33.4973 4.544V3.392C33.4973 2.752 33.3053 2.56 32.6653 2.56ZM58.7918 2.56H40.4238C39.7838 2.56 39.5918 2.752 39.5918 3.392V47.168C39.5918 47.808 39.7838 48 40.4238 48H41.7678C42.3438 48 42.5358 47.808 42.5358 47.168V28.032H53.0958C58.4718 28.032 60.9038 29.888 63.0158 34.112L69.6718 47.296C69.9278 47.872 70.2478 48 71.2718 48H72.4878C73.1278 48 73.2558 47.616 72.9358 47.168L65.7678 32.96C64.3598 30.336 62.9518 28.736 60.5198 27.712C67.4318 27.136 71.7838 22.72 71.7838 15.36C71.7838 7.232 66.8558 2.56 58.7918 2.56ZM68.7118 15.36C68.7118 21.76 64.8718 25.28 58.4718 25.28H42.5358V5.312H58.4718C64.9998 5.312 68.7118 8.96 68.7118 15.36ZM126.06 17.408V33.088C126.06 42.88 132.14 48.896 143.276 48.896C153.452 48.896 158.06 44.736 160.236 37.44C160.428 36.864 160.3 36.608 159.724 36.416L158.508 35.968C157.932 35.776 157.676 35.904 157.42 36.48C155.5 42.816 151.852 46.144 143.276 46.144C133.996 46.144 129.004 41.152 129.004 33.152V17.344C129.004 9.28 133.804 4.416 143.276 4.416C151.596 4.416 155.372 7.424 157.292 13.76C157.484 14.336 157.74 14.4 158.38 14.272L159.532 13.888C160.108 13.632 160.3 13.44 160.108 12.8C157.932 5.504 153.196 1.664 143.276 1.664C131.948 1.664 126.06 7.68 126.06 17.408ZM199.775 47.168L191.711 31.232C189.727 27.392 187.423 25.088 183.519 24.192L199.071 3.392C199.391 2.944 199.327 2.56 198.687 2.56H197.215C196.255 2.56 195.999 2.688 195.551 3.264L180.447 23.68C179.999 23.616 179.423 23.616 178.847 23.616H170.911V3.392C170.911 2.752 170.719 2.56 170.143 2.56H168.799C168.159 2.56 167.967 2.752 167.967 3.392V47.168C167.967 47.808 168.159 48 168.799 48H170.143C170.719 48 170.911 47.808 170.911 47.168V26.304H179.039C184.415 26.304 186.847 28.16 188.959 32.384L196.447 47.296C196.767 47.872 197.023 48 198.047 48H199.327C199.967 48 200.031 47.616 199.775 47.168ZM239.238 2.56H237.638C236.742 2.56 236.486 2.624 236.102 3.264L220.934 26.24L205.766 3.264C205.446 2.624 205.19 2.56 204.294 2.56H202.566C201.99 2.56 201.862 2.944 202.118 3.392L219.398 29.248V47.168C219.398 47.808 219.59 48 220.23 48H221.574C222.15 48 222.342 47.808 222.342 47.168V29.312L239.686 3.392C239.942 2.944 239.814 2.56 239.238 2.56Z" fill="black"/>
<path fill-rule="evenodd" clip-rule="evenodd" d="M99.5 39C110.27 39 119 30.2696 119 19.5C119 8.73045 110.27 0 99.5 0C88.7304 0 80 8.73045 80 19.5C80 30.2696 88.7304 39 99.5 39ZM99.5 35.7108C108.453 35.7108 115.711 28.453 115.711 19.5C115.711 10.547 108.453 3.28916 99.5 3.28916C90.547 3.28916 83.2892 10.547 83.2892 19.5C83.2892 28.453 90.547 35.7108 99.5 35.7108Z" fill="#293B57"/>
<path d="M115.086 46.8286L102.214 38.4483L114.265 31.4911L115.086 46.8286Z" fill="#293B57"/>
<rect x="104.143" y="13.2765" width="3.18856" height="15.3672" transform="rotate(45 104.143 13.2765)" fill="#293B57"/>
<path fill-rule="evenodd" clip-rule="evenodd" d="M111.672 14.7622L109.793 12.8834L107.831 14.8454L105.42 14.2525L104.827 11.8409L106.789 9.87888L104.91 8L102.193 10.7166L102.197 10.72L103.38 15.5321L104.165 15.5071L104.14 16.2922L108.952 17.4754L108.956 17.4788L111.672 14.7622Z" fill="#293B57"/>
<path fill-rule="evenodd" clip-rule="evenodd" d="M88 24.9099L89.8789 26.7888L91.8409 24.8267L94.2525 25.4197L94.8454 27.8312L92.8834 29.7933L94.7622 31.6721L97.4767 28.9576L97.4788 28.9556L97.4754 28.9522L96.2922 24.14L95.507 24.1651L95.5321 23.38L90.72 22.1967L90.7166 22.1933L90.7145 22.1954L88 24.9099Z" fill="#293B57"/>
</svg>
