<svg height="480pt" viewBox="0 -128 480 480" width="480pt" xmlns="http://www.w3.org/2000/svg"><path d="m440 64h-45.398438l-85.898437-62.472656c-1.367187-.992188-3.011719-1.527344-4.703125-1.527344h-48c-3.464844 0-6.539062 2.230469-7.609375 5.527344s.101563 6.90625 2.90625 8.945312l68.101563 49.527344h-103.398438v-40c0-4.417969-3.582031-8-8-8h-32c-4.417969 0-8 3.582031-8 8v40h-48v-40c0-4.417969-3.582031-8-8-8h-32c-4.417969 0-8 3.582031-8 8v40h-20.6875l-37.65625-37.65625-11.3125 11.3125 26.34375 26.34375h-20.6875c-4.417969 0-8 3.582031-8 8v64c0 13.253906 10.746094 24 24 24h32.640625c-2.726563 17.691406 3.332031 35.601562 16.238281 48h-72.878906v16h232v-16h-80.878906c12.90625-12.398438 18.964844-30.308594 16.238281-48h161.28125c-2.726563 17.691406 3.332031 35.601562 16.238281 48h-64.878906v16h200v-16h-56.878906c12.90625-12.398438 18.964844-30.308594 16.238281-48h16.640625c13.253906 0 24-10.746094 24-24v-32c-.027344-22.082031-17.917969-39.972656-40-40zm22.527344 32h-30.527344v-16h8c10.132812.042969 19.148438 6.445312 22.527344 16zm-161.128906-80 66 48h-20.796876l-66-48zm-117.398438 16h16v32h-16zm-96 0h16v32h-16zm-72 48h44.6875l-16 16h-28.6875zm96 128c-22.089844 0-40-17.910156-40-40s17.910156-40 40-40 40 17.910156 40 40c-.027344 22.082031-17.917969 39.972656-40 40zm50.519531-64c-9.234375-19.539062-28.910156-32-50.519531-32s-41.285156 12.460938-50.519531 32h-37.480469c-4.417969 0-8-3.582031-8-8v-24h32c2.121094 0 4.15625-.84375 5.65625-2.34375l29.65625-29.65625h100.6875v8c.003906 21.769531 9.878906 42.363281 26.847656 56zm93.480469 0c-30.914062-.035156-55.964844-25.085938-56-56v-8h128v64zm128 64c-22.089844 0-40-17.910156-40-40s17.910156-40 40-40 40 17.910156 40 40c-.027344 22.082031-17.917969 39.972656-40 40zm72-64h-21.480469c-7.820312-16.550781-23.25-28.21875-41.304687-31.234375-18.054688-3.015625-36.441406 3.003906-49.214844 16.113281v-48.878906h72v24c0 4.417969 3.582031 8 8 8h40v24c0 4.417969-3.582031 8-8 8zm0 0"/><path d="m224 96h32v16h-32zm0 0"/><path d="m384 144c-13.253906 0-24 10.746094-24 24s10.746094 24 24 24 24-10.746094 24-24-10.746094-24-24-24zm0 32c-4.417969 0-8-3.582031-8-8s3.582031-8 8-8 8 3.582031 8 8-3.582031 8-8 8zm0 0"/><path d="m112 144c-13.253906 0-24 10.746094-24 24s10.746094 24 24 24 24-10.746094 24-24-10.746094-24-24-24zm0 32c-4.417969 0-8-3.582031-8-8s3.582031-8 8-8 8 3.582031 8 8-3.582031 8-8 8zm0 0"/><path d="m248 208h16v16h-16zm0 0"/></svg>