<svg id="Capa_1" enable-background="new 0 0 511.834 511.834" height="512" viewBox="0 0 511.834 511.834" width="512" xmlns="http://www.w3.org/2000/svg"><g><g><path d="m90.35 173.317c-10.236 0-19.589 5.622-24.412 14.682l-4.954 9.331c-10.416 19.618 4.284 43.931 26.415 43.931h114.524c5.522 0 10-4.477 10-10v-47.943c0-5.523-4.478-10-10-10h-111.573zm-11.442 43.141c-.868-1.443-2.632-5.284-.261-9.75l4.949-9.321c1.337-2.511 3.924-4.071 6.753-4.071h36.606v27.943h-39.557c-5.057.002-7.622-3.357-8.49-4.801zm113.015 4.803h-44.967v-27.943h44.967z"/><path d="m242.806 241.261h81.266c14.699 0 22.903-17.857 13.193-28.987l-25.69-29.481c-5.254-6.021-12.844-9.475-20.825-9.475h-47.943c-5.522 0-10 4.477-10 10v47.943c-.001 5.523 4.476 10 9.999 10zm10-47.944h37.943c2.203 0 4.301.956 5.751 2.619l22.068 25.325h-65.763v-27.944z"/><path d="m492.946 225.092-98.302-14.749c-1.422-.211-2.725-.92-3.682-2.011l-56.126-63.683c-7.723-8.85-18.881-13.925-30.615-13.925h-73.817c-5.522 0-10 4.477-10 10s4.478 10 10 10h73.817c5.956 0 11.622 2.579 15.578 7.112l56.146 63.706c4.062 4.627 9.656 7.675 15.741 8.582l63.801 9.572c-2.151 4.046-3.32 8.584-3.32 13.172v12.885c0 12.149 8.182 23.217 19.833 26.676v3.745c0 4.631-2.937 8.765-7.274 10.274-6.558 2.258-13.591 4.665-19.039 6.512-6.896-16.025-21.995-27.291-39.705-29.111-24.504-2.545-47.74 14.361-52.791 38.495h-188.921c-4.656-22.253-25.01-38.76-47.729-38.76-21.304 0-40.666 14.349-46.739 34.792-11.951-3.167-31.369-8.907-44.145-12.81-2.381-.788-4.189-2.584-5.065-4.817h18.838c11.154 0 20.229-9.074 20.229-20.228v-19.457c0-11.153-9.074-20.228-20.229-20.228h-19.43v-9.003c0-3.584.892-7.165 2.572-10.341l31.762-59.823c3.582-6.752 10.559-10.946 18.206-10.946h69.888c5.522 0 10-4.477 10-10s-4.478-10-10-10h-69.888c-15.068 0-28.814 8.266-35.872 21.57l-31.767 59.834c-3.206 6.06-4.901 12.875-4.901 19.708v65.9c0 12.308 7.87 23.113 19.583 26.888.048.015.097.031.145.045 3.902 1.192 32.749 9.978 48.468 13.935 3.082 23.941 23.58 42.506 48.346 42.506 23.462 0 43.102-16.656 47.727-38.764h188.924c4.625 22.108 24.265 38.764 47.726 38.764 26.76 0 48.546-21.669 48.752-48.382 7.742-2.612 18.635-6.358 21.598-7.378 12.4-4.316 20.732-16.04 20.732-29.174v-2.597c10.952-.1 19.834-9.032 19.834-20.007v-28.519c-.001-10.657-8.378-19.369-18.889-19.96zm-453.516 35.746c.126 0 .229.102.229.228v19.457c0 .125-.103.228-.229.228h-19.43v-19.912h19.43zm77.111 100.271c-15.858 0-28.761-12.902-28.761-28.761s12.902-28.761 28.761-28.761c15.672 0 28.761 13.117 28.761 28.785-.013 15.847-12.91 28.737-28.761 28.737zm284.377 0c-15.846 0-28.74-12.882-28.76-28.725 0-15.663 13.07-28.797 28.76-28.797 15.641 0 28.762 13.104 28.762 28.761 0 15.859-12.903 28.761-28.762 28.761zm90.914-87.523s-.004 0-.015 0h-9.779c-5.205-.025-9.542-2.403-9.869-7.842v-12.88c0-4.317 3.513-7.83 7.83-7.83l11.834.016z"/><path d="m242.806 281.294h13.194c5.522 0 10-4.477 10-10s-4.478-10-10-10h-13.194c-5.522 0-10 4.477-10 10s4.477 10 10 10z"/><path d="m178.307 144.547c2.068 5.045 8.025 7.485 13.05 5.41 5.039-2.081 7.495-8.026 5.41-13.06-2.087-5.039-8.028-7.484-13.06-5.4-5.027 2.082-7.494 8.024-5.4 13.05z"/></g></g></svg>