<svg width="83" height="105" viewBox="0 0 83 105" fill="none" xmlns="http://www.w3.org/2000/svg">
<path fill-rule="evenodd" clip-rule="evenodd" d="M41.5 83C64.4198 83 83 64.4198 83 41.5C83 18.5802 64.4198 0 41.5 0C18.5802 0 0 18.5802 0 41.5C0 64.4198 18.5802 83 41.5 83ZM41.5 76C60.5538 76 76 60.5538 76 41.5C76 22.4462 60.5538 7 41.5 7C22.4462 7 7 22.4462 7 41.5C7 60.5538 22.4462 76 41.5 76Z" fill="#356FA4"/>
<path d="M41 105L53.9904 78.75H28.0096L41 105Z" fill="#356FA4"/>
<rect x="49.3762" y="28.9289" width="6" height="28.9169" transform="rotate(45 49.3762 28.9289)" fill="#356FA4"/>
<path fill-rule="evenodd" clip-rule="evenodd" d="M50.8198 19L54.3553 22.5355L50.6633 26.2276L51.7791 30.7654L56.3169 31.8812L60.009 28.1892L63.5445 31.7247L58.4365 36.8326L58.4327 36.8365L58.4263 36.8301L49.3711 34.6036L49.4183 33.1262L47.9409 33.1734L45.7144 24.1182L45.708 24.1118L45.7119 24.108L50.8198 19Z" fill="#356FA4"/>
<path fill-rule="evenodd" clip-rule="evenodd" d="M19 50.8198L22.5355 54.3553L26.2276 50.6633L30.7654 51.7791L31.8812 56.3169L28.1892 60.009L31.7247 63.5445L36.8326 58.4365L36.8365 58.4327L36.8301 58.4263L34.6036 49.3711L33.1262 49.4183L33.1734 47.9409L24.1182 45.7144L24.1118 45.708L24.108 45.7119L19 50.8198Z" fill="#356FA4"/>
</svg>
