<svg width="243" height="77" viewBox="0 0 243 77" fill="none" xmlns="http://www.w3.org/2000/svg">
<path d="M32.384 14.56H1.664C1.024 14.56 0.832 14.752 0.832 15.392V16.544C0.832 17.12 1.024 17.312 1.664 17.312H15.552V59.168C15.552 59.808 15.744 60 16.384 60H17.728C18.304 60 18.496 59.808 18.496 59.168V17.312H32.384C33.024 17.312 33.216 17.12 33.216 16.544V15.392C33.216 14.752 33.024 14.56 32.384 14.56ZM58.5105 14.56H40.1425C39.5025 14.56 39.3105 14.752 39.3105 15.392V59.168C39.3105 59.808 39.5025 60 40.1425 60H41.4865C42.0625 60 42.2545 59.808 42.2545 59.168V40.032H52.8145C58.1905 40.032 60.6225 41.888 62.7345 46.112L69.3905 59.296C69.6465 59.872 69.9665 60 70.9905 60H72.2065C72.8465 60 72.9745 59.616 72.6545 59.168L65.4865 44.96C64.0785 42.336 62.6705 40.736 60.2385 39.712C67.1505 39.136 71.5025 34.72 71.5025 27.36C71.5025 19.232 66.5745 14.56 58.5105 14.56ZM68.4305 27.36C68.4305 33.76 64.5905 37.28 58.1905 37.28H42.2545V17.312H58.1905C64.7185 17.312 68.4305 20.96 68.4305 27.36ZM125.779 29.408V45.088C125.779 54.88 131.859 60.896 142.995 60.896C153.171 60.896 157.779 56.736 159.955 49.44C160.147 48.864 160.019 48.608 159.443 48.416L158.227 47.968C157.651 47.776 157.395 47.904 157.139 48.48C155.219 54.816 151.571 58.144 142.995 58.144C133.715 58.144 128.723 53.152 128.723 45.152V29.344C128.723 21.28 133.523 16.416 142.995 16.416C151.315 16.416 155.091 19.424 157.011 25.76C157.203 26.336 157.459 26.4 158.099 26.272L159.251 25.888C159.827 25.632 160.019 25.44 159.827 24.8C157.651 17.504 152.915 13.664 142.995 13.664C131.667 13.664 125.779 19.68 125.779 29.408ZM199.494 59.168L191.43 43.232C189.446 39.392 187.142 37.088 183.238 36.192L198.79 15.392C199.11 14.944 199.046 14.56 198.406 14.56H196.934C195.974 14.56 195.718 14.688 195.27 15.264L180.166 35.68C179.718 35.616 179.142 35.616 178.566 35.616H170.63V15.392C170.63 14.752 170.438 14.56 169.862 14.56H168.518C167.878 14.56 167.686 14.752 167.686 15.392V59.168C167.686 59.808 167.878 60 168.518 60H169.862C170.438 60 170.63 59.808 170.63 59.168V38.304H178.758C184.134 38.304 186.566 40.16 188.678 44.384L196.166 59.296C196.486 59.872 196.742 60 197.766 60H199.046C199.686 60 199.75 59.616 199.494 59.168ZM238.957 14.56H237.357C236.461 14.56 236.205 14.624 235.821 15.264L220.653 38.24L205.485 15.264C205.165 14.624 204.909 14.56 204.013 14.56H202.285C201.709 14.56 201.581 14.944 201.837 15.392L219.117 41.248V59.168C219.117 59.808 219.309 60 219.949 60H221.293C221.869 60 222.061 59.808 222.061 59.168V41.312L239.405 15.392C239.661 14.944 239.533 14.56 238.957 14.56Z" fill="white"/>
<path fill-rule="evenodd" clip-rule="evenodd" d="M101.5 52C112.27 52 121 43.2696 121 32.5C121 21.7304 112.27 13 101.5 13C90.7304 13 82 21.7304 82 32.5C82 43.2696 90.7304 52 101.5 52ZM101.5 48.7108C110.453 48.7108 117.711 41.453 117.711 32.5C117.711 23.547 110.453 16.2892 101.5 16.2892C92.547 16.2892 85.2892 23.547 85.2892 32.5C85.2892 41.453 92.547 48.7108 101.5 48.7108Z" fill="#356FA4"/>
<path d="M117.086 59.8286L104.214 51.4483L116.265 44.4911L117.086 59.8286Z" fill="#356FA4"/>
<rect x="106.143" y="26.2765" width="3.18856" height="15.3672" transform="rotate(45 106.143 26.2765)" fill="#356FA4"/>
<path fill-rule="evenodd" clip-rule="evenodd" d="M113.672 27.7622L111.793 25.8834L109.831 27.8454L107.42 27.2525L106.827 24.8409L108.789 22.8789L106.91 21L104.193 23.7166L104.197 23.72L105.38 28.5321L106.165 28.5071L106.14 29.2922L110.952 30.4754L110.956 30.4788L113.672 27.7622Z" fill="#356FA4"/>
<path fill-rule="evenodd" clip-rule="evenodd" d="M90 37.9099L91.8789 39.7888L93.8409 37.8267L96.2525 38.4197L96.8454 40.8312L94.8834 42.7933L96.7622 44.6721L99.4767 41.9576L99.4788 41.9556L99.4754 41.9522L98.2922 37.14L97.507 37.1651L97.5321 36.38L92.72 35.1967L92.7166 35.1933L92.7145 35.1954L90 37.9099Z" fill="#356FA4"/>
</svg>
